<svg width="421" height="72" viewBox="0 0 421 72" fill="none" xmlns="http://www.w3.org/2000/svg">
<path d="M0.608 3.6H20.832C26.5067 3.6 31.456 4.70933 35.68 6.928C39.904 9.104 43.1467 12.176 45.408 16.144C47.6693 20.0693 48.8 24.592 48.8 29.712C48.8 34.832 47.6693 39.376 45.408 43.344C43.1467 47.2693 39.904 50.32 35.68 52.496C31.456 54.672 26.5067 55.76 20.832 55.76H0.608V3.6ZM21.024 45.456C26.0587 45.456 30.0053 44.0907 32.864 41.36C35.7227 38.5867 37.152 34.704 37.152 29.712C37.152 24.72 35.7227 20.8373 32.864 18.064C30.0053 15.2907 26.0587 13.904 21.024 13.904H12.256V45.456H21.024ZM71.7955 56.656C68.2542 56.656 65.0968 55.8027 62.3235 54.096C59.5502 52.432 57.3955 50.1067 55.8595 47.12C54.3235 44.1333 53.5555 40.7627 53.5555 37.008C53.5555 33.2533 54.3235 29.8827 55.8595 26.896C57.3955 23.9093 59.5502 21.584 62.3235 19.92C65.0968 18.2133 68.2542 17.36 71.7955 17.36C76.6168 17.36 80.2008 18.9387 82.5475 22.096V18.256H93.9395V55.76H82.5475V51.92C80.2008 55.0773 76.6168 56.656 71.7955 56.656ZM73.5875 46.928C76.3608 46.928 78.5795 46.0107 80.2435 44.176C81.9075 42.2987 82.7395 39.9093 82.7395 37.008C82.7395 34.1067 81.9075 31.7387 80.2435 29.904C78.5795 28.0267 76.3608 27.088 73.5875 27.088C70.8995 27.088 68.7448 28.0267 67.1235 29.904C65.5022 31.7387 64.6915 34.1067 64.6915 37.008C64.6915 39.9093 65.5022 42.2987 67.1235 44.176C68.7448 46.0107 70.8995 46.928 73.5875 46.928ZM108.234 0.143997C110.239 0.143997 111.903 0.805331 113.226 2.128C114.549 3.45067 115.21 5.11467 115.21 7.12C115.21 9.12533 114.549 10.7893 113.226 12.112C111.903 13.4347 110.239 14.096 108.234 14.096C106.229 14.096 104.565 13.4347 103.242 12.112C101.919 10.7893 101.258 9.12533 101.258 7.12C101.258 5.11467 101.919 3.45067 103.242 2.128C104.565 0.805331 106.229 0.143997 108.234 0.143997ZM113.93 55.888H102.538V18.256H113.93V55.888ZM133.868 55.76H122.476V2H133.868V55.76ZM179.405 18.256L157.837 71.376H146.637L153.421 54.736L138.637 18.256H151.245L159.373 41.424L167.565 18.256H179.405ZM202.483 3.6H225.139C230.856 3.6 235.294 4.98667 238.451 7.76C241.651 10.5333 243.251 14.3307 243.251 19.152C243.251 21.072 242.675 22.9493 241.523 24.784C240.371 26.576 238.92 27.792 237.171 28.432C239.646 29.2427 241.672 30.736 243.251 32.912C244.872 35.0453 245.683 37.392 245.683 39.952C245.683 43.152 244.936 45.9467 243.443 48.336C241.992 50.7253 239.859 52.56 237.043 53.84C234.227 55.12 230.899 55.76 227.059 55.76H202.483V3.6ZM224.627 24.72C226.846 24.72 228.552 24.2507 229.747 23.312C230.984 22.3307 231.603 20.944 231.603 19.152C231.603 17.3173 230.984 15.9307 229.747 14.992C228.552 14.0107 226.846 13.52 224.627 13.52H214.131V24.72H224.627ZM226.547 45.84C228.894 45.84 230.728 45.328 232.051 44.304C233.374 43.28 234.035 41.8293 234.035 39.952C234.035 38.0747 233.374 36.624 232.051 35.6C230.728 34.576 228.894 34.064 226.547 34.064H214.131V45.84H226.547ZM269.826 56.656C266.071 56.656 262.7 55.8027 259.714 54.096C256.77 52.432 254.466 50.1067 252.802 47.12C251.138 44.1333 250.306 40.7627 250.306 37.008C250.306 33.2533 251.138 29.8827 252.802 26.896C254.466 23.9093 256.77 21.584 259.714 19.92C262.7 18.2133 266.071 17.36 269.826 17.36C273.58 17.36 276.93 18.2133 279.874 19.92C282.86 21.584 285.186 23.9093 286.85 26.896C288.514 29.8827 289.346 33.2533 289.346 37.008C289.346 38.2453 289.26 39.4613 289.09 40.656H261.634C262.06 42.832 262.999 44.5173 264.45 45.712C265.9 46.9067 267.692 47.504 269.826 47.504C271.447 47.504 272.876 47.248 274.114 46.736C275.394 46.1813 276.268 45.456 276.738 44.56H288.194C287.554 46.9493 286.359 49.04 284.61 50.832C282.86 52.6667 280.706 54.096 278.146 55.12C275.586 56.144 272.812 56.656 269.826 56.656ZM278.21 33.296C277.74 31.0347 276.78 29.328 275.33 28.176C273.879 26.9813 272.044 26.384 269.826 26.384C267.607 26.384 265.794 26.9813 264.385 28.176C262.978 29.328 262.039 31.0347 261.57 33.296H278.21ZM312.358 56.656C308.817 56.656 305.659 55.8027 302.886 54.096C300.113 52.432 297.958 50.1067 296.422 47.12C294.886 44.1333 294.118 40.7627 294.118 37.008C294.118 33.2533 294.886 29.8827 296.422 26.896C297.958 23.9093 300.113 21.584 302.886 19.92C305.659 18.2133 308.817 17.36 312.358 17.36C317.179 17.36 320.763 18.9387 323.11 22.096V18.256H334.502V55.76H323.11V51.92C320.763 55.0773 317.179 56.656 312.358 56.656ZM314.15 46.928C316.923 46.928 319.142 46.0107 320.806 44.176C322.47 42.2987 323.302 39.9093 323.302 37.008C323.302 34.1067 322.47 31.7387 320.806 29.904C319.142 28.0267 316.923 27.088 314.15 27.088C311.462 27.088 309.307 28.0267 307.686 29.904C306.065 31.7387 305.254 34.1067 305.254 37.008C305.254 39.9093 306.065 42.2987 307.686 44.176C309.307 46.0107 311.462 46.928 314.15 46.928ZM343.101 18.256H354.493V22.096C356.839 18.9387 360.338 17.36 364.989 17.36C367.89 17.36 370.45 18.0427 372.669 19.408C374.887 20.7307 376.594 22.6507 377.789 25.168C379.026 27.6853 379.645 30.6507 379.645 34.064V55.76H368.253V35.984C368.253 33.1253 367.677 30.9493 366.525 29.456C365.415 27.92 363.794 27.152 361.661 27.152C359.442 27.152 357.693 27.984 356.413 29.648C355.133 31.312 354.493 33.5947 354.493 36.496V55.76H343.101V18.256ZM403.031 17.36C406.145 17.36 408.983 17.872 411.543 18.896C414.103 19.8773 416.15 21.2853 417.687 23.12C419.223 24.9547 420.055 27.088 420.183 29.52H409.175C409.004 28.368 408.321 27.472 407.127 26.832C405.975 26.1493 404.545 25.808 402.839 25.808C401.132 25.808 399.703 26.0853 398.551 26.64C397.441 27.152 396.887 27.8347 396.887 28.688C396.887 29.584 397.548 30.3093 398.871 30.864C400.193 31.4187 402.497 31.952 405.783 32.464C411.201 33.2747 415.063 34.6187 417.367 36.496C419.671 38.3733 420.823 40.9547 420.823 44.24C420.823 46.7147 420.033 48.8907 418.455 50.768C416.876 52.6453 414.743 54.096 412.055 55.12C409.367 56.144 406.423 56.656 403.223 56.656C399.98 56.656 397.036 56.1227 394.391 55.056C391.788 54.032 389.697 52.56 388.119 50.64C386.583 48.72 385.751 46.48 385.623 43.92H396.631C396.801 45.1147 397.527 46.096 398.807 46.864C400.087 47.5893 401.623 47.952 403.415 47.952C405.249 47.952 406.764 47.6533 407.959 47.056C409.153 46.4587 409.751 45.7333 409.751 44.88C409.751 43.984 409.047 43.2373 407.639 42.64C406.231 42 403.927 41.4453 400.727 40.976C395.82 40.2507 392.108 39.0133 389.591 37.264C387.116 35.5147 385.879 32.848 385.879 29.264C385.879 26.8747 386.625 24.784 388.119 22.992C389.655 21.2 391.724 19.8133 394.327 18.832C396.929 17.8507 399.831 17.36 403.031 17.36Z" fill="#8E5C48"/>
</svg>
